<mxfile host="app.diagrams.net" modified="2023-09-28T00:38:51.498Z" agent="Mozilla/5.0 (Macintosh; Intel Mac OS X 10_15_7) AppleWebKit/537.36 (KHTML, like Gecko) Chrome/119.0.0.0 Safari/537.36 Edg/119.0.0.0" etag="CuyHwwcsMrZv1TDrmdjF" version="21.8.2" type="github">
  <diagram name="Page-1" id="gl7itzXOc_nNFnvp_Sqy">
    <mxGraphModel dx="954" dy="648" grid="1" gridSize="10" guides="1" tooltips="1" connect="1" arrows="1" fold="1" page="1" pageScale="1" pageWidth="850" pageHeight="1100" math="0" shadow="0">
      <root>
        <mxCell id="0" />
        <mxCell id="1" parent="0" />
        <mxCell id="cKOpjiD4mU9q3P8g4Ua1-2" value="VNET01&lt;br&gt;10.0.0.0/16" style="image;aspect=fixed;html=1;points=[];align=center;fontSize=12;image=img/lib/azure2/networking/Virtual_Networks.svg;" vertex="1" parent="1">
          <mxGeometry x="298.5" y="700" width="67" height="40" as="geometry" />
        </mxCell>
        <mxCell id="cKOpjiD4mU9q3P8g4Ua1-24" style="edgeStyle=orthogonalEdgeStyle;rounded=0;orthogonalLoop=1;jettySize=auto;html=1;entryX=0;entryY=0.5;entryDx=0;entryDy=0;" edge="1" parent="1" source="cKOpjiD4mU9q3P8g4Ua1-9" target="cKOpjiD4mU9q3P8g4Ua1-16">
          <mxGeometry relative="1" as="geometry" />
        </mxCell>
        <mxCell id="cKOpjiD4mU9q3P8g4Ua1-25" value="VNET Peering" style="edgeLabel;html=1;align=center;verticalAlign=middle;resizable=0;points=[];" vertex="1" connectable="0" parent="cKOpjiD4mU9q3P8g4Ua1-24">
          <mxGeometry x="0.0152" relative="1" as="geometry">
            <mxPoint as="offset" />
          </mxGeometry>
        </mxCell>
        <mxCell id="cKOpjiD4mU9q3P8g4Ua1-9" value="EAST US" style="swimlane;startSize=0;dashed=1;dashPattern=12 12;verticalAlign=bottom;" vertex="1" parent="1">
          <mxGeometry x="70" y="270" width="315.5" height="440" as="geometry" />
        </mxCell>
        <mxCell id="cKOpjiD4mU9q3P8g4Ua1-10" value="" style="swimlane;startSize=0;fillStyle=solid;fillColor=#76608a;fontColor=#ffffff;strokeColor=#432D57;gradientColor=none;swimlaneFillColor=#808080;rounded=1;glass=1;shadow=0;opacity=60;" vertex="1" parent="cKOpjiD4mU9q3P8g4Ua1-9">
          <mxGeometry x="50" y="90" width="215" height="246" as="geometry" />
        </mxCell>
        <mxCell id="cKOpjiD4mU9q3P8g4Ua1-3" value="" style="image;aspect=fixed;html=1;points=[];align=center;fontSize=12;image=img/lib/azure2/compute/Virtual_Machine.svg;" vertex="1" parent="cKOpjiD4mU9q3P8g4Ua1-10">
          <mxGeometry x="20" y="47" width="69" height="64" as="geometry" />
        </mxCell>
        <mxCell id="cKOpjiD4mU9q3P8g4Ua1-4" value="" style="image;aspect=fixed;html=1;points=[];align=center;fontSize=12;image=img/lib/azure2/compute/Virtual_Machine.svg;" vertex="1" parent="cKOpjiD4mU9q3P8g4Ua1-10">
          <mxGeometry x="20" y="141" width="69" height="64" as="geometry" />
        </mxCell>
        <mxCell id="cKOpjiD4mU9q3P8g4Ua1-11" value="SUB01&lt;br&gt;10.0.0.0/24" style="text;html=1;align=center;verticalAlign=middle;resizable=0;points=[];autosize=1;strokeColor=none;fillColor=none;" vertex="1" parent="cKOpjiD4mU9q3P8g4Ua1-10">
          <mxGeometry x="135" y="205" width="80" height="40" as="geometry" />
        </mxCell>
        <mxCell id="cKOpjiD4mU9q3P8g4Ua1-12" value="VM-PORTAL" style="text;html=1;strokeColor=none;fillColor=#FFFFFF;align=center;verticalAlign=middle;whiteSpace=wrap;rounded=0;" vertex="1" parent="cKOpjiD4mU9q3P8g4Ua1-10">
          <mxGeometry x="114.5" y="60" width="80" height="30" as="geometry" />
        </mxCell>
        <mxCell id="cKOpjiD4mU9q3P8g4Ua1-14" value="VM-DV" style="text;html=1;strokeColor=none;fillColor=#FFFFFF;align=center;verticalAlign=middle;whiteSpace=wrap;rounded=0;" vertex="1" parent="cKOpjiD4mU9q3P8g4Ua1-10">
          <mxGeometry x="114.5" y="150" width="80" height="30" as="geometry" />
        </mxCell>
        <mxCell id="cKOpjiD4mU9q3P8g4Ua1-1" value="NSG01" style="image;aspect=fixed;html=1;points=[];align=center;fontSize=12;image=img/lib/azure2/networking/Network_Security_Groups.svg;verticalAlign=top;direction=east;" vertex="1" parent="cKOpjiD4mU9q3P8g4Ua1-9">
          <mxGeometry x="150" y="60" width="32.94" height="40" as="geometry" />
        </mxCell>
        <mxCell id="cKOpjiD4mU9q3P8g4Ua1-15" value="VNET02&lt;br&gt;10.1.0.0/16" style="image;aspect=fixed;html=1;points=[];align=center;fontSize=12;image=img/lib/azure2/networking/Virtual_Networks.svg;" vertex="1" parent="1">
          <mxGeometry x="778.5" y="700" width="67" height="40" as="geometry" />
        </mxCell>
        <mxCell id="cKOpjiD4mU9q3P8g4Ua1-16" value="CENTRAL US" style="swimlane;startSize=0;dashed=1;dashPattern=12 12;verticalAlign=bottom;" vertex="1" parent="1">
          <mxGeometry x="550" y="270" width="315.5" height="440" as="geometry" />
        </mxCell>
        <mxCell id="cKOpjiD4mU9q3P8g4Ua1-17" value="" style="swimlane;startSize=0;fillStyle=solid;fillColor=#76608a;fontColor=#ffffff;strokeColor=#432D57;gradientColor=none;swimlaneFillColor=#808080;rounded=1;glass=1;shadow=0;opacity=60;" vertex="1" parent="cKOpjiD4mU9q3P8g4Ua1-16">
          <mxGeometry x="50" y="90" width="215" height="246" as="geometry" />
        </mxCell>
        <mxCell id="cKOpjiD4mU9q3P8g4Ua1-18" value="" style="image;aspect=fixed;html=1;points=[];align=center;fontSize=12;image=img/lib/azure2/compute/Virtual_Machine.svg;" vertex="1" parent="cKOpjiD4mU9q3P8g4Ua1-17">
          <mxGeometry x="20" y="47" width="69" height="64" as="geometry" />
        </mxCell>
        <mxCell id="cKOpjiD4mU9q3P8g4Ua1-19" value="" style="image;aspect=fixed;html=1;points=[];align=center;fontSize=12;image=img/lib/azure2/compute/Virtual_Machine.svg;" vertex="1" parent="cKOpjiD4mU9q3P8g4Ua1-17">
          <mxGeometry x="20" y="141" width="69" height="64" as="geometry" />
        </mxCell>
        <mxCell id="cKOpjiD4mU9q3P8g4Ua1-20" value="SUB02&lt;br&gt;10.1.0.0/24" style="text;html=1;align=center;verticalAlign=middle;resizable=0;points=[];autosize=1;strokeColor=none;fillColor=none;" vertex="1" parent="cKOpjiD4mU9q3P8g4Ua1-17">
          <mxGeometry x="135" y="205" width="80" height="40" as="geometry" />
        </mxCell>
        <mxCell id="cKOpjiD4mU9q3P8g4Ua1-21" value="VM-AD" style="text;html=1;strokeColor=none;fillColor=#FFFFFF;align=center;verticalAlign=middle;whiteSpace=wrap;rounded=0;" vertex="1" parent="cKOpjiD4mU9q3P8g4Ua1-17">
          <mxGeometry x="114.5" y="60" width="80" height="30" as="geometry" />
        </mxCell>
        <mxCell id="cKOpjiD4mU9q3P8g4Ua1-22" value="VM-HELP" style="text;html=1;strokeColor=none;fillColor=#FFFFFF;align=center;verticalAlign=middle;whiteSpace=wrap;rounded=0;" vertex="1" parent="cKOpjiD4mU9q3P8g4Ua1-17">
          <mxGeometry x="114.5" y="150" width="80" height="30" as="geometry" />
        </mxCell>
        <mxCell id="cKOpjiD4mU9q3P8g4Ua1-23" value="NSG01" style="image;aspect=fixed;html=1;points=[];align=center;fontSize=12;image=img/lib/azure2/networking/Network_Security_Groups.svg;verticalAlign=top;direction=east;" vertex="1" parent="cKOpjiD4mU9q3P8g4Ua1-16">
          <mxGeometry x="150" y="60" width="32.94" height="40" as="geometry" />
        </mxCell>
        <mxCell id="cKOpjiD4mU9q3P8g4Ua1-27" style="edgeStyle=orthogonalEdgeStyle;rounded=0;orthogonalLoop=1;jettySize=auto;html=1;" edge="1" parent="1" source="cKOpjiD4mU9q3P8g4Ua1-26" target="cKOpjiD4mU9q3P8g4Ua1-1">
          <mxGeometry relative="1" as="geometry" />
        </mxCell>
        <mxCell id="cKOpjiD4mU9q3P8g4Ua1-26" value="" style="ellipse;shape=cloud;whiteSpace=wrap;html=1;" vertex="1" parent="1">
          <mxGeometry x="410" width="270" height="190" as="geometry" />
        </mxCell>
        <mxCell id="cKOpjiD4mU9q3P8g4Ua1-8" value="" style="sketch=0;aspect=fixed;pointerEvents=1;shadow=0;dashed=0;html=1;strokeColor=none;labelPosition=center;verticalLabelPosition=bottom;verticalAlign=top;align=center;fillColor=#00188D;shape=mxgraph.mscae.enterprise.android_phone" vertex="1" parent="1">
          <mxGeometry x="570" y="70" width="30" height="50" as="geometry" />
        </mxCell>
        <mxCell id="cKOpjiD4mU9q3P8g4Ua1-7" value="" style="sketch=0;aspect=fixed;pointerEvents=1;shadow=0;dashed=0;html=1;strokeColor=none;labelPosition=center;verticalLabelPosition=bottom;verticalAlign=top;align=center;fillColor=#00188D;shape=mxgraph.mscae.enterprise.workstation_client" vertex="1" parent="1">
          <mxGeometry x="500" y="70" width="50" height="50" as="geometry" />
        </mxCell>
      </root>
    </mxGraphModel>
  </diagram>
</mxfile>
